<svg id="Layer_1" data-name="Layer 1" xmlns="http://www.w3.org/2000/svg" viewBox="0 0 612 792"><defs><style>.cls-1{font-size:49.45px;font-family:Cunia, Cunia;font-weight:700;}.cls-1,.cls-7{fill:#1f2944;}.cls-2{fill:#06143d;}.cls-10,.cls-11,.cls-12,.cls-13,.cls-2,.cls-3,.cls-4,.cls-5,.cls-6,.cls-7,.cls-8,.cls-9{fill-rule:evenodd;}.cls-3{fill:#e0b229;}.cls-4{fill:#961010;}.cls-5{fill:#400808;}.cls-6{fill:#fecb32;}.cls-8{fill:#fff;}.cls-9{fill:#0085c7;}.cls-10{fill:#de0023;}.cls-11{fill:#009e3c;}.cls-12{fill:#f4c300;}</style></defs><title>Logo Gram OB 2018</title><text class="cls-1" transform="translate(165.93 735.93)">BRAWIJAYA</text><text class="cls-1" transform="translate(179.62 686.4)">OLIMPIADE</text><path class="cls-2" d="M321.44,592.68c-23.68.1-46.5,1.81-75.69,4.55,30.09-3.29,53.28-4.64,75.69-4.55Z"/><path class="cls-2" d="M488.73,545.75l-35.92,20.19q-3.48,1.2-6.88,2.27h-.05c-49.71,15.57-89.37,9.92-123.64-1.45,63.48-21.64,109.5-62.95,166.49-21Z"/><path class="cls-3" d="M292.45,505.88h0a118.25,118.25,0,0,0,29.6,26.54l.51.33c1.37.84,2.75,1.67,4.15,2.46l-3.82,2.28q.15,1.61.15,3.24a35.15,35.15,0,1,1-53.39-30.05c-.47.28-.94.58-1.39.89a171.16,171.16,0,0,1,9.12-30.45,117,117,0,0,0,15.07,24.75Z"/><path class="cls-4" d="M233.27,286c-8,2.05-26.44,16.67-26.44,16.67a143.38,143.38,0,0,0,17.79-19.52c18.49-23.93,31.79-40,31.79-70.59a114.31,114.31,0,0,0-83.53-110c59.89,56.37-27.31,95.63,5.66,141.46-9-7.2-10-14.07-24.1-12.91,18.56,18-46.31,218,101.74,341.66C183.52,478,215.26,326.77,233.27,286Z"/><path class="cls-5" d="M172.88,102.51c59.89,56.37-27.31,95.63,5.66,141.46-9-7.2-10-14.07-24.1-12.91,18.56,18-46.31,218,101.74,341.66C126.41,442.34,168.81,287.43,166,243.2c9.95,11.19,23.86,10,23.86,10-20.17-46.05,34-83,5.16-128.28-10.41-16.36-22.13-22.45-22.13-22.45Z"/><path class="cls-4" d="M261.83,248.66c-22.32,39.28-23.53,83.68,2,121-30.06-63.56,34.61-125.26,91.91-139.58,31.22-7.81,52.43-27.16,63.91-51.41-7.88,2.41-18.83,8-18.83,8,40-27.22,37.69-78.75,8.77-123.24-12,73.4-44.7,101.5-80.51,126.71,6.36-.89,7.47-.9,10.95.08-34.05,10.24-58.4,27.42-78.18,58.41Z"/><path class="cls-5" d="M261.83,248.66c-22.29,39.24-23.53,83.58,1.9,120.88-1.19-1.89-16.79-27.17-15-60.63C252.24,242.47,304.1,208.52,349,190.32c-5.95-3.21-6-3-9.35-3.59,0,0,61.3-30.22,69.91-123.27-12,73.4-44.7,101.5-80.51,126.71,6.36-.89,7.47-.9,10.95.08-34.05,10.24-58.4,27.42-78.18,58.41Z"/><path class="cls-3" d="M355.72,230.07c-57.3,14.32-122,76-91.91,139.59.6,1,1.23,2,1.86,2.94a129.63,129.63,0,0,1,66.95-39.12A79.39,79.39,0,0,1,359.56,229c-1.26.37-2.54.71-3.84,1Z"/><path class="cls-6" d="M299.86,345.82a129.08,129.08,0,0,1,32.76-12.34A79.39,79.39,0,0,1,359.56,229c-49.95,17.85-76.43,67.45-59.7,116.79Z"/><path class="cls-4" d="M384.84,40.17c1,0,11.77,7,15.14,15.14,4.61,11.14,0,24.62-6.87,33.51,0,0,1.63-30.71-8.27-48.65Z"/><path class="cls-4" d="M397.76,20.09A18.68,18.68,0,0,1,412,30.56c4.59,9.61-2.29,23-2.29,23s-4-24.39-11.91-33.43Z"/><path class="cls-4" d="M470.8,269.91c5.46,10.17,9.46,32.86,4.44,42.9-1.43,2.87-1.27,2.87-1.27,2.87s25.24-27.26-3.17-45.77Z"/><path class="cls-4" d="M198.16,79.92s10.05,19,16.5,27.27,9.19,10.33,9.19,10.33-23.39-7.2-27.41-18.45,1.72-19.15,1.72-19.15Z"/><path class="cls-4" d="M223,69.24s-7.1,5.88-7.18,12.26,9.33,15.14,9.33,15.14-4.66-19.3-2.15-27.4Z"/><path class="cls-5" d="M425.25,383.17q2.36,2.31,4.38,4.62a64.33,64.33,0,0,1,7.79,10.8c.55,1,1.06,2,1.54,2.92,14.77,30.29-7.3,60.51-38.29,85.64-25.09,20.34-111.59,70.92-133.57,81.93,83.53-36.87,253.46-117,158.15-185.91Z"/><path class="cls-4" d="M479.84,468a93,93,0,0,0-34.18-72.09q-1.79-1.46-3.66-2.84a92.65,92.65,0,0,0-8.68-5.7c-2.61-1.51-5.31-2.9-8.07-4.16q2.36,2.31,4.38,4.62a64.33,64.33,0,0,1,7.79,10.8c.55,1,1.06,2,1.54,2.92,14.77,30.29-7.3,60.51-38.29,85.64-25.09,20.34-111.59,70.92-133.57,81.93,23.46,22.35,212.74,7.78,212.74-101.12Z"/><path class="cls-4" d="M263.67,566.17c-3.3-202.36,185.26-158.75,202.86-239-5,5.89-9.64,4.69-9.64,4.69,18.66-33.35,4.57-69.91-19.8-92.49,4.85,40.69-25.07,65.62-41.82,84.33,2.38-10.61,2.08-15.78,1-19.47-50.32,43.22-101.38,11.46-148.94,94.29-22.28,41.33-21,119,8.31,157.37a53.05,53.05,0,0,0,8.07,10.29Z"/><path class="cls-5" d="M437.09,239.36c4.85,40.69-25.07,65.62-41.82,84.33,2.38-10.61,2.08-15.78,1-19.47-50.32,43.22-101.38,11.46-148.94,94.29-.36.66-.71,1.33-1.06,2v0c-.32.64-.64,1.28-.95,1.94v0c-20.14,42.18-18.08,116.21,10.34,153.37a53.05,53.05,0,0,0,8.07,10.29c-45.55-69.42-35.88-175.47,44.2-214.94,26.66-13.14,65-17.06,83.72-35.55a55.67,55.67,0,0,1-6.33,23.07c19.51-14.54,69.11-60.18,51.83-99.39Z"/><path class="cls-6" d="M406.21,482.51a80.52,80.52,0,0,0-23.62-93.15c-19.3,8.17-39.43,17.5-57.53,30.91a117.64,117.64,0,0,1,74.15,68c.51-.4,1-.78,1.46-1.16,1.88-1.53,3.73-3.07,5.54-4.64Z"/><path class="cls-3" d="M439,401.51c-.48-1-1-1.94-1.54-2.92a64.33,64.33,0,0,0-7.79-10.8q-2-2.31-4.38-4.62a80,80,0,0,0-16-5c-8.5,3.68-17.48,7.3-26.66,11.19a80.52,80.52,0,0,1,23.62,93.15c28-24.16,46.62-52.55,32.75-81Z"/><path class="cls-5" d="M425.25,383.17q2.36,2.31,4.38,4.62a64.33,64.33,0,0,1,7.79,10.8c.55,1,1.06,2,1.54,2.92,14.77,30.29-7.3,60.51-38.29,85.64-25.09,20.34-111.59,70.92-133.57,81.93C331.27,545,524,447.52,425.25,383.17Z"/><path class="cls-6" d="M322.05,532.43a117.86,117.86,0,0,1-44.67-51.3,171.16,171.16,0,0,0-9.12,30.45q-1.69,8.25-2.79,17.27a106.47,106.47,0,0,0,26,26.94c9.35-5.31,20.2-11.61,31.44-18.29l3.82-2.28c-1.4-.79-2.78-1.62-4.15-2.46l-.51-.33Z"/><path class="cls-7" d="M154.15,545.75l91.6,51.48c61.87-6.75,94.57-5.34,151.38,0l55.68-31.29c-148.78,51.57-209-86.12-298.66-20.19Z"/><path class="cls-7" d="M251,611.46a1.6,1.6,0,0,1-1.68-1.75v-9.88c50.47-5.78,93.78-5.78,144.24,0v9.88a1.6,1.6,0,0,1-1.68,1.75Z"/><path class="cls-8" d="M323.34,627a6.94,6.94,0,0,0,3.33,3.78,6.77,6.77,0,0,0,3.74.64c2.26,0,4.74-2.12,5.59-4.37a14,14,0,0,1-6.34-6.46,14.85,14.85,0,0,1-2.83,3.92,15.6,15.6,0,0,1-3.49,2.49Z"/><path class="cls-8" d="M303.9,620.64a14.15,14.15,0,0,1-6.3,6.37,3.66,3.66,0,0,0,.18.46,6.73,6.73,0,0,0,.6,1.08,6.56,6.56,0,0,0,4.79,2.88,7.09,7.09,0,0,0,3.86-.69,6.87,6.87,0,0,0,3.21-3.73,15.33,15.33,0,0,1-6.34-6.37Z"/><path class="cls-8" d="M308.6,609.67c.14-.28.28-.54.42-.77a14.32,14.32,0,0,1,20.66-4.6,15.29,15.29,0,0,1,4.66,5.4,16,16,0,0,1,2.14-3.19,11.9,11.9,0,0,1,2-1.86,14.34,14.34,0,0,1,19,21.33,14.92,14.92,0,0,1-9.33,4.38,14.71,14.71,0,0,1-4.5,7.09c-.31.24-.56.49-.9.73l-.86.57a14.28,14.28,0,0,1-20-4.82c-.18-.29-.35-.58-.51-.88a15.26,15.26,0,0,1-7.47,6.84,14,14,0,0,1-11.28-.21,14.35,14.35,0,0,1-7.17-7,15.38,15.38,0,0,1-.81-2.26c-.45-.06-.91,0-1.39-.13a14.44,14.44,0,0,1-12-14.2,14.93,14.93,0,0,1,2.57-8.17l.1-.12,1.29-1.58.15-.17a14.47,14.47,0,0,1,16.5-2.87,14,14,0,0,1,6.65,6.54Z"/><path class="cls-9" d="M283.94,616a11.86,11.86,0,0,0,9.86,11.64c.48.09.94.06,1.42.14,1.42.22,1.15.14,1.15-2.46-2.95,0-5.06-.58-7.14-2.66a7.68,7.68,0,0,1-1.86-2.56,9.29,9.29,0,0,1,14.7-10.88,9,9,0,0,1,1.9,2.51,9.57,9.57,0,0,1,.11,8.4,9.42,9.42,0,0,1-1.8,2.5,8.33,8.33,0,0,1-1.16,1c-.25.17-.39.25-.66.41s-.37.16-.49.59c-.05.19-.27,1.75-.26,1.91,0,.82.84.22,1.24,0a11.76,11.76,0,1,0-13.64-18.77L286,609.4a12.33,12.33,0,0,0-2.08,6.64Z"/><path class="cls-10" d="M337.94,614.84c.13-.57.22-1.16.41-1.74a9.52,9.52,0,0,1,3.75-4.85,9.4,9.4,0,0,1,11.46,1c6.46,6.38,1.27,16.1-5.95,16.1a8.39,8.39,0,0,1-4.54-1,7.8,7.8,0,0,1-2.37-1.69l-.12-.11-.12-.12a8.73,8.73,0,0,1-1.89-2.89c-.37-1-.08-.85-1.05-1.22a4.77,4.77,0,0,0-2-.42,8.06,8.06,0,0,1,.26,1,11.77,11.77,0,1,0,4.28-12.28,8.81,8.81,0,0,0-1.57,1.42,11.53,11.53,0,0,0-2.29,3.68,15.15,15.15,0,0,0-.64,2.35c0,.46.56.31,1.07.4s.82.23,1.28.27Z"/><path class="cls-11" d="M334.23,638.38a12,12,0,0,0,6.31-1.82c.29-.18.5-.32.79-.52s.47-.41.79-.65c1.78-1.37,3.77-4.94,3.82-7.17-.92,0-1.54-.36-2.39-.36-.33,4-4.47,8-8.48,8a8.8,8.8,0,0,1-4.76-.85,9.46,9.46,0,0,1-5.27-8,9.14,9.14,0,0,1,3.18-7.45c1.77-1.47,2.07-.71,2.07-3.9-1.72,0-4.86,2.88-5.89,4.62a11.77,11.77,0,0,0,9.83,18.08Z"/><path class="cls-12" d="M296.84,626.43a11.54,11.54,0,0,0,1.08,5.14,11.8,11.8,0,0,0,5.85,5.74,11.41,11.41,0,0,0,9.25.16c3.64-1.45,7.12-5.56,7.12-9.25a9.49,9.49,0,0,1-2-.39c-.63-.1-.11-.07-.67,1.63a9.46,9.46,0,0,1-4.44,5.36,9.25,9.25,0,0,1-5.17,1,9.29,9.29,0,0,1-7.76-5.5,9.31,9.31,0,0,1,3.46-11.59c.69-.44.7-.18.88-1.15a14.49,14.49,0,0,0,.08-2c-1.28.11-3.9,2.08-4.78,3.22a11.5,11.5,0,0,0-2.87,7.53Z"/><path class="cls-13" d="M309.86,614.25c0,.27,2.32.59,2.39.59,0-2,1.32-3.8,2.39-5.14a10.41,10.41,0,0,1,3.16-2.22,9.17,9.17,0,0,1,10,1.77l.06,0a9.3,9.3,0,0,1-1.36,14.62c-.74.48-.68.16-.84,1.19a10.4,10.4,0,0,0-.12,1.92c1-.08,3.3-1.7,4.16-2.54a11.7,11.7,0,0,0,3.49-7.74,11.45,11.45,0,0,0-1.11-5.81,12.93,12.93,0,0,0-3.86-4.51,11.72,11.72,0,0,0-16.94,3.82,11.37,11.37,0,0,0-1.39,4Z"/><path class="cls-11" d="M333.64,617c0,.76,1.2-.16,3.91.87a9.17,9.17,0,0,1,5.25,4.91c.41.81.18,1.14,1,1.47a6.75,6.75,0,0,0,2.1.52,12.13,12.13,0,0,0-3.8-7,11.77,11.77,0,0,0-8.5-3V617Z"/><path class="cls-12" d="M308,617.35l2.11,0a11.67,11.67,0,0,1,2,.53,9.49,9.49,0,0,1,5.37,5.74c.2.49.2.37.74.58a7.43,7.43,0,0,0,2,.51c0-1.79-1.37-4.2-2.44-5.57a11.87,11.87,0,0,0-9.75-4.35v2.51Z"/><path class="cls-13" d="M322.17,627.74a6.12,6.12,0,0,1-.12-1.31c0-.6.11-.53.12-1.07-3.17,0-5.3-.61-7.56-3a9.18,9.18,0,0,1-1.76-2.78c-.35-.89-.08-.87-1-1.23a4.87,4.87,0,0,0-1.95-.44c.33,3.89,3.88,7.91,7.57,9.15a10.38,10.38,0,0,0,4.74.64Z"/><text class="cls-1" transform="translate(250.61 788.85)">2018</text></svg>