<?xml version="1.0"?>
<svg xmlns="http://www.w3.org/2000/svg" xmlns:xlink="http://www.w3.org/1999/xlink" version="1.1" id="Capa_1" x="0px" y="0px" viewBox="0 0 512.002 512.002" style="enable-background:new 0 0 512.002 512.002;" xml:space="preserve" width="512px" height="512px"><g><g>
	<g>
		<path d="M446,248.321c0-26.072-14.452-49.372-37.482-61.515c2.806-15.869-0.802-32.134-10.367-45.742    c-9.878-14.054-24.626-23.261-41.403-26.116c-1.097-11.41-5.863-22.12-13.874-30.875c-10.507-11.485-25.589-18.072-41.377-18.072    c-18.811,0-35.454,9.189-45.495,23.202c-10.041-14.013-26.684-23.202-45.495-23.202c-15.788,0-30.87,6.587-41.377,18.072    c-8.011,8.755-12.777,19.466-13.874,30.875c-16.777,2.855-31.525,12.062-41.403,26.115c-9.566,13.608-13.174,29.874-10.368,45.743    C80.452,198.949,66,222.249,66,248.321c0,22.885,11.137,43.724,29.717,56.745c-10.689,16.858-12.299,37.148-4.016,56.245    c10.154,23.409,32.925,38.534,58.011,38.534c1.953,0,3.917-0.09,5.888-0.268c1.553,10.392,6.173,20.256,13.399,28.21    c10.517,11.575,25.644,18.214,41.507,18.214c18.811,0,35.454-9.189,45.495-23.202c10.041,14.013,26.685,23.202,45.495,23.202    c15.86,0,30.988-6.638,41.504-18.212c7.228-7.955,11.849-17.818,13.401-28.212c1.969,0.178,3.932,0.268,5.882,0.268    c0.002,0,0.005,0,0.008,0c25.088-0.003,47.859-15.131,58.012-38.54c8.281-19.095,6.672-39.383-4.018-56.239    C434.864,292.045,446,271.207,446,248.321z M246.001,391.841H246c0,18.836-15.923,34.16-35.494,34.16    c-10.237,0-19.97-4.251-26.704-11.663c-5.023-5.53-7.985-12.264-8.642-19.413c18.032-7.159,22.689-19.38,26.186-28.582    c2.936-7.729,4.41-11.609,12.779-13.852c5.335-1.429,8.501-6.913,7.071-12.247c-1.429-5.335-6.915-8.503-12.247-7.071    c-18.255,4.892-22.904,17.13-26.3,26.066c-3.421,9.002-5.68,14.949-20.024,18.792c-0.012,0.004-0.023,0.008-0.035,0.011    c-0.011,0.003-0.022,0.004-0.033,0.007c-4.321,1.19-8.643,1.794-12.845,1.794c-17.113,0-32.682-10.399-39.662-26.493    c-6.679-15.396-3.758-31.97,7.813-44.334c2.178-2.328,3.116-5.554,2.525-8.687c-0.592-3.132-2.641-5.796-5.518-7.169    C97.063,284.656,86,267.474,86,248.321c0-20.663,12.865-38.922,32.775-46.518c5.007-1.91,7.618-7.427,5.921-12.51    c-4.154-12.443-2.144-25.83,5.517-36.728c8.039-11.435,20.837-18.19,35.122-18.546c17.009,0.04,20.764,6.829,25.951,16.216    c4.726,8.553,11.197,20.266,28.599,20.266c5.522,0,10-4.477,10-10c0-5.523-4.478-10-10-10c-5.153,0-6.502-1.628-11.094-9.938    c-5.084-9.201-12.437-22.492-33.338-25.783c1.035-6.332,3.906-12.26,8.432-17.206c6.729-7.354,16.432-11.572,26.621-11.572    c19.571,0,35.494,15.324,35.494,34.16v135.257c-23.479-2.283-29.346-13.017-36.536-26.214    c-7.037-12.916-15.794-28.99-42.115-31.774c-5.487-0.573-10.415,3.401-10.996,8.893s3.4,10.415,8.893,10.997    c15.883,1.68,20.169,9.546,26.655,21.453c2.348,4.31,4.853,8.893,8.041,13.316c-5.27,5.354-13.219,10.9-22.237,15.372    c-4.948,2.454-6.97,8.454-4.517,13.401c1.745,3.521,5.286,5.561,8.967,5.561c1.492,0,3.007-0.335,4.435-1.043    c11.205-5.556,20.836-12.35,27.754-19.435c7.566,4.829,17.649,8.383,31.657,9.526V391.841z M397.132,293.162    c-2.877,1.374-4.926,4.037-5.518,7.169c-0.591,3.133,0.348,6.359,2.525,8.687c11.569,12.363,14.49,28.935,7.814,44.33    c-6.98,16.095-22.55,26.496-39.666,26.497c0,0-0.003,0-0.005,0c-4.197,0-8.517-0.604-12.838-1.794    c-0.012-0.003-0.023-0.004-0.035-0.008c-0.012-0.003-0.022-0.007-0.033-0.01c-14.345-3.844-16.603-9.79-20.024-18.792    c-3.395-8.936-8.045-21.175-26.3-26.066c-5.331-1.431-10.817,1.736-12.247,7.071c-1.43,5.334,1.736,10.818,7.071,12.247    c8.369,2.243,9.843,6.123,12.779,13.852c3.497,9.202,8.154,21.423,26.185,28.582c-0.656,7.149-3.618,13.884-8.643,19.414    c-6.733,7.411-16.466,11.661-26.702,11.661c-19.571,0-35.494-15.324-35.494-34.16v-71.587c0.022-17.98,9.488-26.927,18.352-29.301    c11.005-2.953,22.534,2.785,29.361,14.609c2.761,4.783,8.874,6.421,13.66,3.66c4.783-2.761,6.422-8.877,3.66-13.66    c-11.311-19.592-32.147-29.207-51.858-23.928c-4.83,1.294-9.245,3.383-13.175,6.133v-64.503    c21.029,1.783,27.328,9.481,35.044,18.913c6.821,8.339,14.553,17.79,31.201,23.085c1.008,0.32,2.028,0.473,3.033,0.473    c4.238,0,8.174-2.717,9.526-6.972c1.674-5.263-1.235-10.887-6.499-12.561c-10.988-3.495-15.751-9.317-21.781-16.688    c-9.276-11.339-19.681-24.051-50.524-26.291v-73.061c0-18.836,15.923-34.16,35.494-34.16c10.189,0,19.893,4.218,26.621,11.572    c4.525,4.947,7.396,10.873,8.432,17.206c-20.903,3.291-28.256,16.582-33.339,25.783c-4.591,8.31-5.939,9.938-11.093,9.938    c-5.522,0-10,4.477-10,10c0,5.523,4.478,10,10,10c17.401,0,23.873-11.713,28.599-20.266c5.186-9.387,8.941-16.176,25.951-16.216    c14.285,0.355,27.083,7.111,35.122,18.547c7.659,10.898,9.67,24.284,5.515,36.726c-1.697,5.083,0.914,10.6,5.921,12.511    c19.91,7.597,32.775,25.856,32.775,46.518C426,267.475,414.938,284.656,397.132,293.162z" data-original="#000000" class="active-path" data-old_color="#000000" fill="#FF9900"/>
	</g>
</g><g>
	<g>
		<path d="M363.705,239.374h-0.127c-5.522,0-10,4.477-10,10c0,5.523,4.478,10,10,10h0.127c5.522,0,10-4.477,10-10    C373.705,243.852,369.228,239.374,363.705,239.374z" data-original="#000000" class="active-path" data-old_color="#000000" fill="#FF9900"/>
	</g>
</g><g>
	<g>
		<path d="M165.325,283.881c-1.082-5.416-6.359-8.927-11.766-7.845c-0.144,0.028-0.281,0.058-0.425,0.091    c-5.383,1.238-8.742,6.605-7.504,11.987c1.064,4.628,5.181,7.761,9.736,7.761c0.723,0,1.459-0.08,2.193-0.244    C162.93,294.513,166.403,289.27,165.325,283.881z" data-original="#000000" class="active-path" data-old_color="#000000" fill="#FF9900"/>
	</g>
</g><g>
	<g>
		<path d="M256,0c-5.522,0-10,4.477-10,10v20c0,5.523,4.478,10,10,10c5.522,0,10-4.477,10-10V10C266,4.477,261.522,0,256,0z" data-original="#000000" class="active-path" data-old_color="#000000" fill="#FF9900"/>
	</g>
</g><g>
	<g>
		<path d="M151.66,55.278l-10-17.32c-2.761-4.783-8.877-6.421-13.66-3.66c-4.783,2.761-6.422,8.877-3.66,13.66l10,17.32    c1.853,3.209,5.213,5.002,8.67,5.002c1.696,0,3.416-0.433,4.99-1.342C152.783,66.177,154.422,60.061,151.66,55.278z" data-original="#000000" class="active-path" data-old_color="#000000" fill="#FF9900"/>
	</g>
</g><g>
	<g>
		<path d="M65.279,134.34l-17.322-10c-4.784-2.762-10.9-1.122-13.66,3.661c-2.762,4.783-1.123,10.899,3.66,13.66l17.322,10    c1.575,0.909,3.294,1.341,4.99,1.341c3.456,0,6.818-1.794,8.67-5.002C71.701,143.217,70.062,137.101,65.279,134.34z" data-original="#000000" class="active-path" data-old_color="#000000" fill="#FF9900"/>
	</g>
</g><g>
	<g>
		<path d="M30,246.001H10c-5.522,0-10,4.477-10,10c0,5.523,4.478,10,10,10h20c5.522,0,10-4.477,10-10    C40,250.478,35.522,246.001,30,246.001z" data-original="#000000" class="active-path" data-old_color="#000000" fill="#FF9900"/>
	</g>
</g><g>
	<g>
		<path d="M68.939,364.002c-2.759-4.782-8.874-6.421-13.66-3.661l-17.322,10c-4.783,2.761-6.422,8.878-3.66,13.66    c1.852,3.208,5.213,5.002,8.67,5.002c1.696,0,3.415-0.433,4.99-1.341l17.322-10C70.062,374.901,71.701,368.785,68.939,364.002z" data-original="#000000" class="active-path" data-old_color="#000000" fill="#FF9900"/>
	</g>
</g><g>
	<g>
		<path d="M148,443.063c-4.785-2.763-10.899-1.123-13.66,3.66l-10,17.32c-2.762,4.783-1.123,10.899,3.66,13.66    c1.575,0.91,3.294,1.342,4.99,1.342c3.456,0,6.818-1.794,8.67-5.002l10-17.32C154.422,451.941,152.783,445.825,148,443.063z" data-original="#000000" class="active-path" data-old_color="#000000" fill="#FF9900"/>
	</g>
</g><g>
	<g>
		<path d="M256,472.002c-5.522,0-10,4.477-10,10v20c0,5.523,4.478,10,10,10c5.522,0,10-4.477,10-10v-20    C266,476.479,261.522,472.002,256,472.002z" data-original="#000000" class="active-path" data-old_color="#000000" fill="#FF9900"/>
	</g>
</g><g>
	<g>
		<path d="M387.662,464.044l-10-17.32c-2.762-4.783-8.876-6.421-13.66-3.66c-4.783,2.761-6.422,8.877-3.66,13.66l10,17.32    c1.853,3.208,5.213,5.002,8.67,5.002c1.696,0,3.416-0.433,4.99-1.342C388.785,474.943,390.424,468.827,387.662,464.044z" data-original="#000000" class="active-path" data-old_color="#000000" fill="#FF9900"/>
	</g>
</g><g>
	<g>
		<path d="M474.043,370.341l-17.32-10c-4.784-2.761-10.899-1.122-13.66,3.66c-2.762,4.783-1.123,10.899,3.66,13.66l17.32,10    c1.575,0.909,3.294,1.342,4.99,1.342c3.456,0,6.818-1.794,8.67-5.002C480.465,379.219,478.826,373.103,474.043,370.341z" data-original="#000000" class="active-path" data-old_color="#000000" fill="#FF9900"/>
	</g>
</g><g>
	<g>
		<path d="M502.002,246.001h-20c-5.522,0-10,4.477-10,10c0,5.523,4.478,10,10,10h20c5.522,0,10-4.477,10-10    S507.524,246.001,502.002,246.001z" data-original="#000000" class="active-path" data-old_color="#000000" fill="#FF9900"/>
	</g>
</g><g>
	<g>
		<path d="M477.702,128c-2.761-4.782-8.877-6.422-13.66-3.66l-17.32,10c-4.783,2.761-6.422,8.877-3.66,13.66    c1.853,3.209,5.213,5.002,8.67,5.002c1.696,0,3.416-0.433,4.99-1.342l17.32-10C478.825,138.899,480.464,132.782,477.702,128z" data-original="#000000" class="active-path" data-old_color="#000000" fill="#FF9900"/>
	</g>
</g><g>
	<g>
		<path d="M384.002,34.298c-4.785-2.763-10.9-1.123-13.66,3.66l-10,17.32c-2.762,4.783-1.123,10.899,3.66,13.66    c1.575,0.91,3.294,1.342,4.99,1.342c3.456,0,6.818-1.794,8.67-5.002l10-17.32C390.424,43.175,388.785,37.059,384.002,34.298z" data-original="#000000" class="active-path" data-old_color="#000000" fill="#FF9900"/>
	</g>
</g></g> </svg>
